<svg xmlns="http://www.w3.org/2000/svg" xmlns:xlink="http://www.w3.org/1999/xlink" width="48" height="48" viewBox="0 0 48 48">
  <defs>
    <linearGradient id="linear-gradient" x1="0.5" x2="0.5" y2="1" gradientUnits="objectBoundingBox">
      <stop offset="0" stop-color="#007289"/>
      <stop offset="1" stop-color="#05618a"/>
    </linearGradient>
  </defs>
  <g id="MDI_account-cog-outline" data-name="MDI / account-cog-outline" opacity="0.6">
    <rect id="Boundary" width="48" height="48" opacity="0" fill="url(#linear-gradient)"/>
    <path id="Path_account-cog-outline" data-name="Path / account-cog-outline" d="M19.2,4c-4.749,0-8.6,4.179-8.6,9.333s3.85,9.333,8.6,9.333,8.6-4.179,8.6-9.333S23.948,4,19.2,4m0,4.667a4.494,4.494,0,0,1,4.3,4.667A4.494,4.494,0,0,1,19.2,18a4.494,4.494,0,0,1-4.3-4.667,4.494,4.494,0,0,1,4.3-4.667m15.049,14q-.516,0-.516.56l-.559,2.94c-.473.42-1.161.793-1.677,1.167l-2.752-1.167a.833.833,0,0,0-.688.233l-2.064,4.107a.48.48,0,0,0,.172.747L28.4,33.167V35.5l-2.236,1.913c-.172.187-.344.56-.172.747l2.064,4.107a.833.833,0,0,0,.688.233L31.5,41.333c.516.373,1.2.747,1.677,1.167l.559,2.94q0,.56.516.56h4.3a.571.571,0,0,0,.516-.56l.344-2.94c.688-.42,1.376-.793,1.892-1.167L43.921,42.5c.3,0,.645,0,.645-.233L46.8,38.16c.172-.187,0-.56-.172-.747L44.394,35.5V33.167l2.236-1.913c.172-.187.344-.56.172-.747L44.566,26.4c0-.233-.344-.233-.645-.233L41.3,27.333c-.516-.373-1.2-.747-1.892-1.167l-.344-2.94a.571.571,0,0,0-.516-.56h-4.3M19.2,25C13.458,25,2,28.1,2,34.333v7H22.789A16.788,16.788,0,0,1,21.542,36.9H6.085V34.333c0-1.493,6.729-4.9,13.114-4.9a18.817,18.817,0,0,1,2.795.233,18.156,18.156,0,0,1,1.763-4.177A26.838,26.838,0,0,0,19.2,25m17.284,5.833a3.355,3.355,0,0,1,3.139,3.593,3.23,3.23,0,1,1-6.449,0A3.379,3.379,0,0,1,36.483,30.833Z" transform="translate(0 -1)" fill="url(#linear-gradient)"/>
  </g>
</svg>
