<svg xmlns="http://www.w3.org/2000/svg" width="106.311" height="35" viewBox="0 0 106.311 35">
  <g id="Grupo_3" data-name="Grupo 3" transform="translate(-127.689 -24)">
    <g id="Grupo_2" data-name="Grupo 2" transform="translate(127.689 31)">
      <path id="Caminho_9" data-name="Caminho 9" d="M1219.446,147.628h0l20,20a.5.5,0,0,1-.354.854H1234.5a.5.5,0,0,1-.354-.147l-7-7a.5.5,0,0,0-.7,0l-7,7a.5.5,0,0,1-.354.147H1214.5a.5.5,0,0,1-.354-.854l9.287-9.3a.5.5,0,0,0,0-.7l-9.285-9.29a.5.5,0,0,1,.354-.854l4.588,0a.506.506,0,0,1,.355.145" transform="translate(-1214.003 -147.481)" fill="#78b22b"/>
      <path id="Caminho_10" data-name="Caminho 10" d="M1354.37,147.634l-6.228,6.228,0,0a.5.5,0,0,0-.056.641h0l2.354,2.368-.021-.021a.5.5,0,0,0,.723.01h0l8.518-8.518v0a.5.5,0,0,0-.354-.854h-4.582a.5.5,0,0,0-.373.167Z" transform="translate(-1334.175 -147.48)" fill="#78b22b"/>
    </g>
    <text id="PLAY" transform="translate(156 52)" fill="#fff" font-size="29" font-family="Inter" font-weight="800" opacity="0.22"><tspan x="0" y="0">PLAY</tspan></text>
  </g>
</svg>
